<?xml version="1.0" standalone="no"?>
<!DOCTYPE svg PUBLIC "-//W3C//DTD SVG 20010904//EN"
 "http://www.w3.org/TR/2001/REC-SVG-20010904/DTD/svg10.dtd">
<svg version="1.0" xmlns="http://www.w3.org/2000/svg"
 width="700.000000pt" height="700.000000pt" viewBox="0 0 700.000000 700.000000"
 preserveAspectRatio="xMidYMid meet">
<metadata>
Created by potrace 1.14, written by Peter Selinger 2001-2017
</metadata>
<g transform="translate(0.000000,700.000000) scale(0.100000,-0.100000)"
fill="#000000" stroke="none">
<path d="M0 3500 l0 -3500 3500 0 3500 0 0 3500 0 3500 -3500 0 -3500 0 0
-3500z m4283 2449 c12 -7 258 -156 547 -332 511 -312 845 -511 915 -544 l35
-17 0 -1340 -1 -1341 -1136 -660 c-625 -363 -1140 -659 -1146 -657 -6 2 -2258
1316 -2274 1327 -2 1 -3 601 -3 1335 l0 1333 107 59 c59 33 391 231 738 441
346 209 641 387 655 394 34 18 1529 19 1563 2z"/>
<path d="M2404 4661 c-502 -136 -672 -752 -309 -1115 127 -127 259 -186 435
-194 191 -8 345 53 485 193 64 63 90 98 122 165 154 316 56 681 -231 865 -148
94 -346 128 -502 86z m373 -499 c78 -40 126 -120 126 -212 1 -231 -334 -301
-445 -93 -36 67 -42 114 -24 176 20 70 75 122 155 148 43 14 143 3 188 -19z"/>
<path d="M4282 4666 c-73 -18 -187 -77 -249 -128 -255 -213 -318 -540 -160
-842 122 -235 393 -380 647 -345 235 33 419 166 516 374 181 390 -46 843 -473
939 -84 19 -206 20 -281 2z m176 -512 c26 -16 61 -50 78 -76 62 -92 52 -180
-30 -264 -64 -66 -133 -90 -214 -74 -66 12 -87 23 -134 68 -116 110 -70 311
84 369 19 7 62 11 101 9 53 -3 77 -10 115 -32z"/>
<path d="M2998 2907 c-38 -15 -98 -59 -133 -97 -11 -12 -82 -79 -158 -148
l-138 -125 -67 65 c-37 36 -86 79 -110 96 -176 125 -387 -82 -264 -259 52 -76
332 -342 387 -369 58 -28 126 -30 175 -5 27 14 163 135 358 319 l42 40 158
-156 c87 -86 176 -165 199 -177 56 -28 142 -28 200 0 28 14 94 74 190 174
l147 154 148 -154 c254 -263 298 -267 538 -41 240 226 265 260 258 357 -8 104
-85 181 -183 181 -60 0 -90 -19 -206 -127 l-102 -96 -25 23 c-13 13 -81 86
-151 162 -135 149 -187 186 -264 186 -68 0 -122 -36 -288 -197 -88 -84 -163
-153 -168 -153 -4 0 -81 70 -172 155 -90 86 -183 165 -207 177 -56 26 -117 32
-164 15z"/>
</g>
</svg>
